<?xml version="1.0" encoding="utf-8"?>
<!-- Generator: Adobe Illustrator 25.2.1, SVG Export Plug-In . SVG Version: 6.00 Build 0)  -->
<svg version="1.1" id="Layer_1" xmlns="http://www.w3.org/2000/svg" xmlns:xlink="http://www.w3.org/1999/xlink" x="0px" y="0px"
	 viewBox="0 0 512 512" style="enable-background:new 0 0 512 512;" xml:space="preserve">
<style type="text/css">
	.st0{fill:#6A9EDA;}
	.st1{clip-path:url(#SVGID_2_);}
	.st2{fill:#5086C1;}
	.st3{clip-path:url(#SVGID_4_);}
	.st4{fill:#2E4E6B;}
	.st5{clip-path:url(#SVGID_6_);}
	.st6{clip-path:url(#SVGID_8_);}
	.st7{fill:#E2E37E;}
	.st8{fill:#605F33;}
	.st9{fill:#C8CA66;}
	.st10{fill:#FF6961;}
	.st11{clip-path:url(#SVGID_10_);}
	.st12{fill:#E2504C;}
	.st13{clip-path:url(#SVGID_12_);}
	.st14{fill:#82262A;}
	.st15{clip-path:url(#SVGID_14_);}
	.st16{clip-path:url(#SVGID_16_);}
	.st17{fill:#77DD77;}
	.st18{clip-path:url(#SVGID_18_);}
	.st19{fill:#42AB49;}
	.st20{clip-path:url(#SVGID_20_);}
	.st21{fill:#286829;}
	.st22{clip-path:url(#SVGID_22_);}
	.st23{clip-path:url(#SVGID_24_);}
</style>
<g>
	<g>
		<g>
			<g>
				<path class="st0" d="M347.9,256.4c0-4.5,3.7-8.1,8.1-8.1h21.3c4.5,0,8.1,3.7,8.1,8.1v19.3c0,4.5-3.7,8.1-8.1,8.1H356
					c-4.5,0-8.1-3.7-8.1-8.1V256.4z"/>
			</g>
			<g>
				<g>
					<g>
						<defs>
							<rect id="SVGID_1_" x="365.4" y="248.3" width="20.2" height="35.7"/>
						</defs>
						<clipPath id="SVGID_2_">
							<use xlink:href="#SVGID_1_"  style="overflow:visible;"/>
						</clipPath>
						<g class="st1">
							<path class="st2" d="M348.6,256.4c0-4.5,3.7-8.1,8.1-8.1h20.6c4.5,0,8.1,3.7,8.1,8.1v19.3c0,4.5-3.7,8.1-8.1,8.1h-20.6
								c-4.5,0-8.1-3.7-8.1-8.1L348.6,256.4L348.6,256.4z"/>
						</g>
					</g>
				</g>
			</g>
			<g>
				<g>
					<g>
						<defs>
							<rect id="SVGID_3_" x="376.1" y="248.3" width="9.4" height="35.7"/>
						</defs>
						<clipPath id="SVGID_4_">
							<use xlink:href="#SVGID_3_"  style="overflow:visible;"/>
						</clipPath>
						<g class="st3">
							<path class="st4" d="M368.3,256.4c0-4.5,3.7-8.1,8.1-8.1h0.8c4.5,0,8.1,3.7,8.1,8.1v19.3c0,4.5-3.7,8.1-8.1,8.1h-0.8
								c-4.5,0-8.1-3.7-8.1-8.1V256.4z"/>
						</g>
					</g>
				</g>
			</g>
		</g>
		<g>
			<g>
				<path class="st0" d="M268.2,257.3c0-4.5,3.7-8.1,8.1-8.1h21.3c4.5,0,8.1,3.7,8.1,8.1v19.3c0,4.5-3.7,8.1-8.1,8.1h-21.3
					c-4.5,0-8.1-3.7-8.1-8.1V257.3z"/>
			</g>
			<g>
				<g>
					<g>
						<defs>
							<rect id="SVGID_5_" x="285.6" y="249.2" width="20.2" height="35.7"/>
						</defs>
						<clipPath id="SVGID_6_">
							<use xlink:href="#SVGID_5_"  style="overflow:visible;"/>
						</clipPath>
						<g class="st5">
							<path class="st2" d="M268.9,257.3c0-4.5,3.7-8.1,8.1-8.1h20.6c4.5,0,8.1,3.7,8.1,8.1v19.3c0,4.5-3.7,8.1-8.1,8.1H277
								c-4.5,0-8.1-3.7-8.1-8.1V257.3z"/>
						</g>
					</g>
				</g>
			</g>
			<g>
				<g>
					<g>
						<defs>
							<rect id="SVGID_7_" x="296.4" y="249.2" width="9.4" height="35.7"/>
						</defs>
						<clipPath id="SVGID_8_">
							<use xlink:href="#SVGID_7_"  style="overflow:visible;"/>
						</clipPath>
						<g class="st6">
							<path class="st4" d="M288.6,257.3c0-4.5,3.7-8.1,8.1-8.1h0.8c4.5,0,8.1,3.7,8.1,8.1v19.3c0,4.5-3.7,8.1-8.1,8.1h-0.8
								c-4.5,0-8.1-3.7-8.1-8.1V257.3z"/>
						</g>
					</g>
				</g>
			</g>
		</g>
		<rect x="245.1" y="274.5" class="st0" width="163.5" height="76.9"/>
		<rect x="399.2" y="274.5" class="st4" width="9.4" height="76.9"/>
		<rect x="388.8" y="274.5" class="st2" width="10.8" height="76.9"/>
	</g>
	<g>
		<rect x="81.6" y="274.5" class="st7" width="163.5" height="76.9"/>
		<rect x="235.7" y="274.5" class="st8" width="9.4" height="76.9"/>
		<rect x="225.3" y="274.5" class="st9" width="10.8" height="76.9"/>
		<rect x="81.6" y="340.5" class="st9" width="143.7" height="11"/>
	</g>
	<g>
		<g>
			<g>
				<path class="st10" d="M184.5,179.5c0-4.5,3.7-8.1,8.1-8.1h21.3c4.5,0,8.1,3.7,8.1,8.1v19.3c0,4.5-3.7,8.1-8.1,8.1h-21.3
					c-4.5,0-8.1-3.7-8.1-8.1V179.5z"/>
			</g>
			<g>
				<g>
					<g>
						<defs>
							<rect id="SVGID_9_" x="201.8" y="171.3" width="20.2" height="35.7"/>
						</defs>
						<clipPath id="SVGID_10_">
							<use xlink:href="#SVGID_9_"  style="overflow:visible;"/>
						</clipPath>
						<g class="st11">
							<path class="st12" d="M185.1,179.5c0-4.5,3.7-8.1,8.1-8.1h20.6c4.5,0,8.1,3.7,8.1,8.1v19.3c0,4.5-3.7,8.1-8.1,8.1h-20.6
								c-4.5,0-8.1-3.7-8.1-8.1V179.5z"/>
						</g>
					</g>
				</g>
			</g>
			<g>
				<g>
					<g>
						<defs>
							<rect id="SVGID_11_" x="212.6" y="171.3" width="9.4" height="35.7"/>
						</defs>
						<clipPath id="SVGID_12_">
							<use xlink:href="#SVGID_11_"  style="overflow:visible;"/>
						</clipPath>
						<g class="st13">
							<path class="st14" d="M204.8,179.5c0-4.5,3.7-8.1,8.1-8.1h0.8c4.5,0,8.1,3.7,8.1,8.1v19.3c0,4.5-3.7,8.1-8.1,8.1H213
								c-4.5,0-8.1-3.7-8.1-8.1V179.5z"/>
						</g>
					</g>
				</g>
			</g>
		</g>
		<g>
			<g>
				<path class="st10" d="M104.7,180.4c0-4.5,3.7-8.1,8.1-8.1h21.3c4.5,0,8.1,3.7,8.1,8.1v19.3c0,4.5-3.7,8.1-8.1,8.1h-21.1
					c-4.5,0-8.1-3.7-8.1-8.1v-19.3H104.7z"/>
			</g>
			<g>
				<g>
					<g>
						<defs>
							<rect id="SVGID_13_" x="122.2" y="172.3" width="20.2" height="35.7"/>
						</defs>
						<clipPath id="SVGID_14_">
							<use xlink:href="#SVGID_13_"  style="overflow:visible;"/>
						</clipPath>
						<g class="st15">
							<path class="st12" d="M105.4,180.4c0-4.5,3.7-8.1,8.1-8.1h20.7c4.5,0,8.1,3.7,8.1,8.1v19.3c0,4.5-3.7,8.1-8.1,8.1h-20.6
								c-4.5,0-8.1-3.7-8.1-8.1L105.4,180.4L105.4,180.4z"/>
						</g>
					</g>
				</g>
			</g>
			<g>
				<g>
					<g>
						<defs>
							<rect id="SVGID_15_" x="132.9" y="172.3" width="9.4" height="35.7"/>
						</defs>
						<clipPath id="SVGID_16_">
							<use xlink:href="#SVGID_15_"  style="overflow:visible;"/>
						</clipPath>
						<g class="st16">
							<path class="st14" d="M125.1,180.4c0-4.5,3.7-8.1,8.1-8.1h0.8c4.5,0,8.1,3.7,8.1,8.1v19.3c0,4.5-3.7,8.1-8.1,8.1h-0.8
								c-4.5,0-8.1-3.7-8.1-8.1V180.4z"/>
						</g>
					</g>
				</g>
			</g>
		</g>
		<rect x="81.6" y="197.7" class="st10" width="163.5" height="76.9"/>
		<rect x="235.7" y="197.7" class="st14" width="9.4" height="76.9"/>
		<rect x="225.3" y="197.7" class="st12" width="10.8" height="76.9"/>
	</g>
	<rect x="81.6" y="263.6" class="st12" width="143.7" height="11"/>
	<rect x="245.1" y="340.5" class="st2" width="143.7" height="11"/>
	<g>
		<g>
			<g>
				<g>
					<path class="st17" d="M377,94.1c1.2-4.3,5.7-6.9,10.1-5.6l20.4,5.7c4.3,1.2,6.9,5.7,5.6,10.1l-5.2,18.6
						c-1.2,4.3-5.7,6.9-10.1,5.6l-20.4-5.7c-4.3-1.2-6.9-5.7-5.6-10.1L377,94.1z"/>
				</g>
				<g>
					<g>
						<g>
							<defs>
								
									<rect id="SVGID_17_" x="382.9" y="100.8" transform="matrix(0.2711 -0.9626 0.9626 0.2711 185.4323 466.5884)" width="35.7" height="20.2"/>
							</defs>
							<clipPath id="SVGID_18_">
								<use xlink:href="#SVGID_17_"  style="overflow:visible;"/>
							</clipPath>
							<g class="st18">
								<path class="st19" d="M377.5,94.3c1.2-4.3,5.7-6.9,10.1-5.6l19.9,5.6c4.3,1.2,6.9,5.7,5.6,10.1l-5.2,18.6
									c-1.2,4.3-5.7,6.9-10.1,5.6L378,123c-4.3-1.2-6.9-5.7-5.6-10.1L377.5,94.3L377.5,94.3z"/>
							</g>
						</g>
					</g>
				</g>
				<g>
					<g>
						<g>
							<defs>
								
									<rect id="SVGID_19_" x="388.2" y="107.6" transform="matrix(0.2711 -0.9626 0.9626 0.2711 187.832 472.6771)" width="35.7" height="9.5"/>
							</defs>
							<clipPath id="SVGID_20_">
								<use xlink:href="#SVGID_19_"  style="overflow:visible;"/>
							</clipPath>
							<g class="st20">
								<path class="st21" d="M396.6,99.7c1.2-4.3,5.7-6.9,10.1-5.6l0.8,0.2c4.3,1.2,6.9,5.7,5.6,10.1l-5.2,18.6
									c-1.2,4.3-5.7,6.9-10.1,5.6l-0.8-0.2c-4.3-1.2-6.9-5.7-5.6-10.1L396.6,99.7z"/>
							</g>
						</g>
					</g>
				</g>
			</g>
			<g>
				<g>
					<path class="st17" d="M300,73.4c1.2-4.3,5.7-6.9,10.1-5.6l20.4,5.7c4.3,1.2,6.9,5.7,5.6,10.1l-5.2,18.5
						c-1.2,4.3-5.7,6.9-10.1,5.6l-20.4-5.7c-4.3-1.2-6.9-5.7-5.6-10.1L300,73.4z"/>
				</g>
				<g>
					<g>
						<g>
							<defs>
								
									<rect id="SVGID_21_" x="305.9" y="80.1" transform="matrix(0.2711 -0.9626 0.9626 0.2711 149.2437 377.3533)" width="35.7" height="20.2"/>
							</defs>
							<clipPath id="SVGID_22_">
								<use xlink:href="#SVGID_21_"  style="overflow:visible;"/>
							</clipPath>
							<g class="st22">
								<path class="st19" d="M300.6,73.6c1.2-4.3,5.7-6.9,10.1-5.6l19.9,5.6c4.3,1.2,6.9,5.7,5.6,10.1l-5.2,18.6
									c-1.2,4.3-5.7,6.9-10.1,5.6l-19.9-5.6c-4.3-1.2-6.9-5.7-5.6-10.1L300.6,73.6z"/>
							</g>
						</g>
					</g>
				</g>
				<g>
					<g>
						<g>
							<defs>
								
									<rect id="SVGID_23_" x="311.2" y="86.9" transform="matrix(0.2711 -0.9626 0.9626 0.2711 151.6673 383.5009)" width="35.7" height="9.5"/>
							</defs>
							<clipPath id="SVGID_24_">
								<use xlink:href="#SVGID_23_"  style="overflow:visible;"/>
							</clipPath>
							<g class="st23">
								<path class="st21" d="M319.6,78.9c1.2-4.3,5.7-6.9,10.1-5.6l0.8,0.2c4.3,1.2,6.9,5.7,5.6,10.1l-5.2,18.5
									c-1.2,4.3-5.7,6.9-10.1,5.6l-0.8-0.2c-4.3-1.2-6.9-5.7-5.6-10.1L319.6,78.9z"/>
							</g>
						</g>
					</g>
				</g>
			</g>
			
				<rect x="302.9" y="61" transform="matrix(0.2711 -0.9626 0.9626 0.2711 111.3751 432.671)" class="st17" width="76.9" height="163.5"/>
			
				<rect x="377.1" y="159" transform="matrix(0.2711 -0.9626 0.9626 0.2711 145.3059 519.2922)" class="st21" width="76.9" height="9.5"/>
			
				<rect x="367.6" y="155.7" transform="matrix(0.2711 -0.9626 0.9626 0.2711 140.9516 508.3372)" class="st19" width="76.9" height="10.8"/>
		</g>
		
			<rect x="317.4" y="100" transform="matrix(0.2711 -0.9626 0.9626 0.2711 69.9279 436.11)" class="st19" width="11" height="143.7"/>
	</g>
</g>
</svg>
